<?xml version="1.0" encoding="utf-8"?>
<!-- Generator: Adobe Illustrator 24.0.1, SVG Export Plug-In . SVG Version: 6.00 Build 0)  -->
<svg version="1.1" id="Layer_1" xmlns="http://www.w3.org/2000/svg" xmlns:xlink="http://www.w3.org/1999/xlink" x="0px" y="0px"
	 viewBox="0 0 512 512" style="enable-background:new 0 0 512 512;" xml:space="preserve">
<style type="text/css">
	.st0{fill:#32A351;}
</style>
<path class="st0" d="M201.4,437.8c-1.8,6.3-3.5,12.6-5.2,18.7h113.4c-1.7-6.1-3.5-12.4-5.2-18.7H201.4z M444.8,44.1
	c-1.3-4.8-12.5-38.3-45.9-42.5c6,7.5,12.4,18.1,14.8,31.5c3.4,14.1,6,37-3,62.2C396.5,135,388,147.6,339.1,186L354,49.2
	c1-1.5,14-20.8,33.8-27.9c5.3-1.9,9.2-3,12.2-3.6c-3.7-7.1-8.4-12.7-12.1-16.4c-1.5,0.1-3.1,0.2-4.7,0.5
	c-45.7,6.1-67.3,42.3-67.3,42.3h-15.4h-41h-62.3c0,0-22.8-28.4-51.9-39.3c-24.7-9.2-46.1-4.9-61.4,10.4c8.1-0.7,18.9-0.5,30,3.3
	c1.2,0.3,2.6,0.7,4,1.1c11.7,3.8,24.7,15.8,33.4,24.9l13.1,120.4c3.5,3.9,8.1,8.6,14.5,13.8c21,17.3,46.1,25.4,46.1,25.4
	c-6.1,0.5-21.4-2.5-37.1-9.1c-17.6-7.7-56-29.7-79.2-80.7C84.4,60.9,93.5,32.8,98.4,23.3c-9.4-1-17.5,0.1-22.2,1.1
	c-15.4,22.6-16,74.4,5.2,115.5c21.1,41.1,90.6,88.9,90.6,88.9l0-0.1c2,10.8,5.4,24.2,10.8,32.4c10.3,15.6,31.6,39.2,36.9,58.9
	c5.3,19.8,6.5,26.6-4.9,69.2c-2.6,9.6-5.7,21-9,33h94.4c-3.3-12-6.5-23.5-9-33c-11.4-42.6-10.3-49.4-4.9-69.2
	c5.3-19.8,26.6-43.3,36.9-58.9c2.3-3.4,4.2-7.8,5.8-12.4c-3.3,1.7-6.9,3.8-10.9,6.4c-22.8,14.8-38.1,36.3-38.1,36.3
	c1.9-8.4,15.7-31.6,34.2-47.1c7.1-6,15.6-11.1,21.8-14.5c64-45.7,90.5-90.5,90.5-90.5C450.6,104.2,448.4,57.3,444.8,44.1z
	 M290.3,401.4c0.4,0.1,0.3,0.7-0.1,0.7h-25.3c0.5-1.4,0.8-2.9,0.8-4.5c0-7.1-5.8-12.8-12.8-12.8c-7.1,0-12.8,5.7-12.8,12.8
	c0,1.6,0.3,3.1,0.8,4.5h-25.3c-0.4,0-0.5-0.6-0.1-0.7c18.7-7,32.9-23.2,37.1-43.2c0.1-0.4,0.7-0.4,0.7,0
	C257.4,378.2,271.6,394.4,290.3,401.4z M314,472H191.8c-5.8,20.5-10.4,36.6-11.2,39.5c-0.1,0.2,0.1,0.5,0.4,0.5h70.7h39.7h33.5
	c0.3,0,0.4-0.2,0.4-0.5C324.3,508.6,319.8,492.6,314,472z"/>
</svg>
