<?xml version="1.0" encoding="utf-8"?>
<!-- Generator: Adobe Illustrator 24.0.1, SVG Export Plug-In . SVG Version: 6.00 Build 0)  -->
<svg version="1.1" id="Layer_1" xmlns="http://www.w3.org/2000/svg" xmlns:xlink="http://www.w3.org/1999/xlink" x="0px" y="0px"
	 viewBox="0 0 512 512" style="enable-background:new 0 0 512 512;" xml:space="preserve">
<style type="text/css">
	.st0{fill:#575D66;}
	.st1{fill-rule:evenodd;clip-rule:evenodd;fill:#E43541;}
	.st2{fill-rule:evenodd;clip-rule:evenodd;fill:#FFFFFF;}
</style>
<path class="st0" d="M256,52.2c84.2,0,156.5,51.1,187.6,124h55.8C465.8,73.9,369.5,0,256,0S46.2,73.9,12.7,176.3h55.8
	C99.5,103.4,171.8,52.2,256,52.2z M256,459.8c-84.2,0-156.5-51.1-187.6-124H12.7C46.2,438.1,142.5,512,256,512
	s209.8-73.9,243.3-176.3h-55.8C412.5,408.6,340.2,459.8,256,459.8z"/>
<path class="st1" d="M145.7,144.8c0.6-5.8,2.7-11.7,5.5-17.6c-2.9,0-5.7,0-8.7,0c-2.9,0-5.7,0-8.6,0c2.4,5.8,4.3,11.7,4.8,17.4
	c-5.7-0.8-11.5-3-17.2-5.8c-0.2,2.8-0.2,5.7-0.2,8.7c-0.2,2.8-0.2,5.7-0.4,8.6c5.9-2.5,11.9-4.2,17.7-4.5c-0.6,6-2.9,11.9-5.5,17.9
	c2.9,0,6.1,0,9,0c3,0,5.9,0,9.1,0c-2.8-5.8-4.8-11.7-5.5-17.5c5.8,0.9,11.4,3.2,17.1,5.9c0-3,0.2-6.1,0.2-9c0.2-3.1,0.2-6.1,0.2-9
	C157.4,142.3,151.6,144.3,145.7,144.8z M369.9,144.8c0.6-5.8,2.7-11.7,5.5-17.6c-2.9,0-5.7,0-8.7,0c-2.9,0-5.7,0-8.6,0
	c2.4,5.8,4.3,11.7,4.8,17.4c-5.7-0.8-11.5-3-17.2-5.8c-0.2,2.8-0.2,5.7-0.2,8.7c-0.2,2.8-0.2,5.7-0.4,8.6c5.9-2.5,11.9-4.2,17.7-4.5
	c-0.6,6-2.9,11.9-5.5,17.9c2.9,0,6.1,0,9,0c3,0,5.9,0,9.1,0c-2.8-5.8-4.8-11.7-5.5-17.5c5.8,0.9,11.4,3.2,17.1,5.9
	c0-3,0.2-6.1,0.2-9c0.2-3.1,0.2-6.1,0.2-9C381.5,142.3,375.7,144.3,369.9,144.8z M145.7,365.7c0.6-5.8,2.7-11.7,5.5-17.6
	c-2.9,0-5.7,0-8.7,0c-2.9,0-5.7,0-8.6,0c2.4,5.8,4.3,11.7,4.8,17.4c-5.7-0.8-11.5-3-17.2-5.8c-0.2,2.8-0.2,5.7-0.2,8.7
	c-0.2,2.8-0.2,5.7-0.4,8.6c5.9-2.5,11.9-4.2,17.7-4.5c-0.6,6-2.9,11.9-5.5,17.9c2.9,0,6.1,0,9,0c3,0,5.9,0,9.1,0
	c-2.8-5.8-4.8-11.7-5.5-17.5c5.8,0.9,11.4,3.2,17.1,5.9c0-3,0.2-6.1,0.2-9c0.2-3.1,0.2-6.1,0.2-9
	C157.4,363.2,151.6,365.2,145.7,365.7z M369.9,365.7c0.6-5.8,2.7-11.7,5.5-17.6c-2.9,0-5.7,0-8.7,0c-2.9,0-5.7,0-8.6,0
	c2.4,5.8,4.3,11.7,4.8,17.4c-5.7-0.8-11.5-3-17.2-5.8c-0.2,2.8-0.2,5.7-0.2,8.7c-0.2,2.8-0.2,5.7-0.4,8.6c5.9-2.5,11.9-4.2,17.7-4.5
	c-0.6,6-2.9,11.9-5.5,17.9c2.9,0,6.1,0,9,0c3,0,5.9,0,9.1,0c-2.8-5.8-4.8-11.7-5.5-17.5c5.8,0.9,11.4,3.2,17.1,5.9
	c0-3,0.2-6.1,0.2-9c0.2-3.1,0.2-6.1,0.2-9C381.5,363.2,375.7,365.2,369.9,365.7z M506.2,201.1h-66.5v-10.2c0-7.9-6.4-14.2-14.2-14.2
	h-89.1H328h-14h-3.6V87.3c-17.1-5.5-35.4-8.5-54.3-8.5s-37.2,3-54.3,8.5v104.4c-16.2-12-34.2-17.7-56.2-17.7
	c-23.1,0-44.5,8.4-60.1,23.7c-1.1,1.1-2.2,2.2-3.3,3.4H5.8C2,218.6,0,236.8,0,255.4s2,36.8,5.8,54.3h74.8c1.7,1.9,3.4,3.7,5.3,5.5
	c15.6,14.7,37,22.8,60.4,22.8c23.8,0,42.3-7.6,55.5-16v102.7c17.1,5.5,35.4,8.5,54.3,8.5s37.2-3,54.3-8.5v-89.3H328h8.4h27.6
	c7.9,0,14.2-6.4,14.2-14.2v-11.4h127.9c3.8-17.5,5.8-35.7,5.8-54.3C512,236.8,510,218.6,506.2,201.1z"/>
<path class="st2" d="M202.2,303.6c-13.8,11.3-32.9,20.1-56.6,20.1c-40.6,0-70.9-27.9-70.9-67.4V256c0-38,29.8-67.7,70.1-67.7
	c22.9,0,39.1,7.1,52.8,19l-21.2,25.5c-9.3-7.8-18.6-12.3-31.4-12.3c-18.8,0-33.3,15.8-33.3,35.7v0.4c0,21,14.7,36.1,35.4,36.1
	c8.7,0,15.4-1.9,20.8-5.4v-15.8h-25.7v-18.3c0.3-4.5,4-8.1,8.6-8.1v0h51.3L202.2,303.6L202.2,303.6z M313.5,214
	c-0.1,4.6-3.8,8.4-8.4,8.5h-53v22.1h47.6v19.6v1.8c0,4.8-3.9,8.6-8.6,8.6v0h-39v46.5H216V190.9h97.5V214z M425.5,214
	c-0.1,4.6-3.8,8.4-8.4,8.5h-53v22.1h47.6v19.6v1.8c0,4.8-3.9,8.6-8.6,8.6v0h-39v46.5H328V190.9h97.5V214z"/>
</svg>
