<?xml version="1.0" encoding="utf-8"?>
<!-- Generator: Adobe Illustrator 24.0.1, SVG Export Plug-In . SVG Version: 6.00 Build 0)  -->
<svg version="1.1" id="Layer_1" xmlns="http://www.w3.org/2000/svg" xmlns:xlink="http://www.w3.org/1999/xlink" x="0px" y="0px"
	 viewBox="0 0 512 512" style="enable-background:new 0 0 512 512;" xml:space="preserve">
<style type="text/css">
	.st0{fill:#222222;}
</style>
<path class="st0" d="M46,340c0,0,16,11,27,14c-5-2-16-11-16-11l7-2l1-1c1,0,2,0,3-1c12-4,32-11,58-21c0,0,21,11,50,17c0,1-1,1-1,1
	c-30,11-48,13-48,13s0,0,1,0c4,1,26,6,51,3c-1,0-1,0-1,0c-17,8-35,13-55,13c-14,0-27-3-39-7c-1,0-2,0-3-1c1,1,1,1,1,2c2,2,4,3,6,5
	c29,28,76,56,119,78c47,24,99,41,99,41c-17-90-29-190-32-236c68-5,238-2,238-2c-18-55-76-146-109-184c-13-3-25-6-39-8
	C256,34,122,29,122,29c-11,27-22,59-32,95c-2,1-6,2-9,3c-12,4-22,10-32,17c-9,8-17,16-25,26l0,0c1-1,25-24,37-28c-1,1-3,5-3,5
	c10-5,20-8,28-10h1c-2,8-3,14-5,22h-1l-15,3c0,0-6,17-6,26c5-13,9-22,9-22h10h1c1,0,2,0,4,0c15,0,40,1,59,6c18,18,27,38,27,38
	s0,0-1,0c-5,1-34,3-64,9l0,0c-1,40,2,69,2,69l0,0c-4-3-22-16-38-33c0-1-1-2-2-3l-8-9c0,0-2-19-2-36c-3,15-4,32-4,39c2,5,8,12,12,17
	c0,0,0,1,1,1c-2,24-3,43-2,69l-1,1L46,340z M245,243c0,26-7,50-22,70l0,0c4-25-2-48-3-50c0,1,0,1-1,1c-11,8-23,16-23,16l0,0
	c0-1,0-30-7-49c0,0,1-1,3-1l0,0c6-3,22-9,51-10C244,228,245,235,245,243 M167,151c0,0-12-17-30-31l0,0c40,4,75,28,94,62l0,0l0,0
	c0,0-1,0-2-1c-5-5-27-24-42-31C175,150,167,151,167,151 M16,262c0,0-1,33,11,58c-17-22-27-49-27-78c0-18,4-35,11-51c0,0,7,20,20,42
	C20,250,16,262,16,262"/>
</svg>
