<?xml version="1.0" encoding="utf-8"?>
<!-- Generator: Adobe Illustrator 26.3.1, SVG Export Plug-In . SVG Version: 6.00 Build 0)  -->
<svg version="1.1" id="Layer_1" xmlns="http://www.w3.org/2000/svg" xmlns:xlink="http://www.w3.org/1999/xlink" x="0px" y="0px"
	 viewBox="0 0 100 100" style="enable-background:new 0 0 100 100;" xml:space="preserve">
<style type="text/css">
	.st0{fill:#CA003D;}
	.st1{fill:#FFFFFF;}
</style>
<g>
	<path class="st0" d="M87.437,0H12.563v57.755h0.003c-0.001,0.089-0.003,0.177-0.003,0.266C12.563,79.526,28.752,94.247,50,100
		c21.248-5.753,37.437-20.474,37.437-41.979c0-0.089-0.003-0.177-0.003-0.266h0.003V0z"/>
	<g>
		<path class="st1" d="M28.978,50.786v-3.569c-0.571-0.441-0.945-1.172-0.945-2.001l-0.005-6.495l8.275,5.487
			c0,0,0.759,0.568,1.61,0.512c0.95-0.063,1.413-0.765,1.448-0.817l8.056-13.627c0.018-0.029,0.988-1.492,0.956-3.437
			c0-3.679-2.982-6.661-6.661-6.661c-1.34,0-2.586,0.396-3.63,1.076c0-0.004,0.028-1.007-0.921-1.659
			c-1.167,2.014-2.265,4.442-3.167,7.125c-0.666,1.983-1.163,3.919-1.493,5.727h1.836c0.379-0.01,0.709-0.213,0.897-0.514
			l0.544-1.247c0.382-0.882,1.056-1.548,1.793-1.733c0.311-0.078,0.612-0.133,0.864-0.211c1.563-0.586,1.717-2.024,1.729-2.45
			c0.353,0.18,0.596,0.546,0.596,0.969c0,0.206-0.142,0.563-0.142,0.563c-0.348,0.899-1.184,2.006-1.371,2.204
			c-0.768,0.86-2.091,2.062-2.091,2.062l0.001,0.001c-0.823,0.762-1.392,1.851-1.476,2.93c-0.065,0.83,0.135,2.416,0.16,2.538
			l0.037,0.214c0,0.175-0.142,0.317-0.317,0.317c-0.063,0-0.122-0.019-0.172-0.051c-0.087-0.056-1.94-0.971-3.033-1.448l0,0.001
			c-1.945-0.83-3.822-1.339-5.401-1.317c-0.801,0.011-1.553,0.516-1.657,1.464c-0.191,1.752-0.038,8.085,0.902,10.678
			C26.537,48.348,27.471,50.669,28.978,50.786z"/>
		<path class="st1" d="M73.84,59.895"/>
		<path class="st1" d="M50.376,80.943c-0.18,0.196-0.291,0.456-0.291,0.742c0,0.327,0.143,0.62,0.37,0.822
			c0.062-0.435,0.378-0.788,0.793-0.904c0,0,1.39-0.373,1.934-0.601c0.292-0.122,0.571-0.443,0.582-0.457
			c0.459-0.554,0.879-1.391,1.144-2.372c0.143-0.53,0.226-1.045,0.254-1.52c0.002-0.034,0.087-1.074-0.63-2.102
			c-0.597-0.857-1.59-1.349-2.702-1.468v-0.267c0.685-0.092,2.084-0.116,3.208,1.368c0.835-0.543,2.499-1.738,3.878-3.431
			c1.927-2.365,3.052-4.675,3.769-5.811c0.618-0.978,1.487-2.474,3.178-2.457c1.268,0.013,2.296,1.026,2.301,2.292
			c0.005,1.947-2.373,4.996-5.229,7.413l-0.909-0.608c-0.598,0.758-1.538,1.897-2.422,2.873c-1.223,1.351-2.342,2.461-2.342,2.461
			c3.246-0.464,6.673-2.081,8.186-3.045l-1.025-0.686c0.283-0.158,0.565-0.321,0.846-0.493c2.39-1.466,4.354-3.245,5.815-5.07
			c2.366-2.955,2.142-6.45,2.142-6.45c0-2.942-2.385-5.326-5.326-5.326h-0.004c-0.366,0-1.462,0.164-1.666,0.196l-0.003-2.501
			c-0.033-0.822-0.696-1.481-1.521-1.506v-0.003h-1.466c0.415-1.273,1.346-2.922,1.825-3.614c0.964-1.394,3.192-4.002,4.917-3.199h0
			c0.565,0.382,0.622,1.089,0.632,1.162c0,0.001,0.192,0.922-0.397,2.387c0.001,0,0.001,0,0.002,0.001
			c-0.139,0.353-1.168,1.939-1.131,3.26c0.03,1.067,0.405,2.041,1.054,2.783c0.836-2.294,2.404-3.819,4.404-5.642
			c2.025-1.846,1.881-4.002,1.881-4.002c-0.032-2.244-1.861-4.053-4.113-4.053c-0.8,0-1.545,0.228-2.177,0.623l-3.178,1.946
			c-0.148,0.079-0.317,0.124-0.496,0.124c-0.31,0-0.559-0.134-0.782-0.348c-1.629-1.564-3.323-4.539-7.6-4.941
			c0.387-0.426,1.011-0.732,1.74-0.823c0,0,0.25-0.038,0.866-0.046c0,0,4.141,0.087,4.182,0.087c1.7,0,3.239-0.485,4.36-1.27
			c1.401-0.926,2.338-2.496,2.389-4.288l-2.609,1.403c-0.046-0.134-0.071-0.277-0.071-0.427c0-0.475,0.249-0.89,0.624-1.124
			c0.083-0.052,3.047-1.595,3.551-1.975c1.077-0.812,1.889-2.101,1.918-3.82c0.017-1.001-0.31-1.93-0.838-2.697
			c-0.105,1.181-1.096,2.108-2.305,2.108H59.374c0.142-0.364,0.561-1.431,0.765-1.792c0.254-0.452,0.703-0.593,0.703-0.593
			c0.744-0.293,1.037-0.938,1.037-0.938h-0.752l0.98-0.943c-0.511,0.045-0.998-0.208-2.215-0.786
			c-0.906-0.431-1.381-0.421-1.498-0.418c-0.834,0.02-1.202,0.607-1.301,0.993c-0.051,0.199-0.338,1.181-0.442,1.583
			c-0.218,0.844-0.072,1.233-0.028,1.347c0.124,0.319,0.383,0.553,0.702,0.662L57.1,25.299c-0.768-0.162-1.923-1.126-3.019-2.207
			l2.37-3.976l0.339-0.038c0.49-0.068,0.772-0.548,0.958-0.902c0.13-0.248,0.134-0.515-0.063-0.698l-0.163-0.158l1.536-2.595
			l-0.772-0.456l-1.57,2.654c-0.781-0.197-1.445-0.081-1.445-0.081l-6.845,0.988c-0.299,0.027-0.585,0.311-0.537,0.631
			c0.254,1.688,1.291,3.921,2.936,6.135l1.812-3.019c-0.917-1.012-1.582-1.834-1.582-1.834l4.797-1.379L36.02,51.628l-0.97-0.553
			l0.009,3.134l2.702-1.59l-0.957-0.545l3.974-6.666c0,0,0.107-0.192,0.267-0.31c0.143-0.105,0.326-0.172,0.516-0.17
			c0.201,0.002,0.392,0.062,0.573,0.238c1.476,1.372,3.285,2.569,5.358,3.466c0.566,0.245,1.135,0.459,1.704,0.645
			c-0.006-0.138-0.012-0.276-0.012-0.415c0-3.264,1.669-6.113,4.151-7.647l0.15,0.637c-3.325,2.82-3.097,6.686-2.579,8.434
			c1.127,3.798,4.367,5.929,7.833,5.94c0.299,0.001,4.12-0.109,4.12-0.109c0.125,0,0.226,0.101,0.226,0.226v0.52
			c-1.348,0.468-2.782,1.096-4.259,1.858c-2.535,1.308-7.952,4.286-6.686,7.203c-0.154,0.006-0.308,0.014-0.464,0.026
			c-0.25-0.375-0.354-0.8-0.354-1.301c0-0.508,0.132-1.797,1.999-3.402c1.122-0.965,4.763-3.501,4.763-3.501
			c-0.166,0.011-0.333,0.017-0.502,0.017c-1.862,0-3.582-0.645-4.971-1.735c0,0-4.34,2.91-5.54,6.425
			c-0.684,2.003,0.286,3.715,0.803,4.435c-0.137,0.061-0.271,0.124-0.403,0.19c-1.017-1.018-2.791-3.73,0.22-7.764
			c1.708-2.289,3.487-3.659,4.043-4.075c-1.259-1.305-2.132-3.025-2.416-4.952c0,0-5.439,3.094-7.315,9.994
			c-1.495,5.5,1.655,7.977,2.961,8.727c-0.069,0.085-0.136,0.17-0.199,0.257c-0.882-0.305-1.614-0.87-2.285-1.49
			c-1.266,0.125-4.319,0.189-6.908-1.786c-0.698-0.532-1.853-1.849-1.732-3.895c0.116-1.958,1.088-3.268,1.73-4.01
			c0.042-0.049,0.099-0.086,0.168-0.086c0.115,0,0.208,0.093,0.208,0.208c0,0.025-0.011,0.07-0.011,0.07l-0.116,0.505
			c0.844-0.593,0.763-1.897,0.763-1.926c0-0.296-0.24-0.535-0.535-0.535c-0.109,0-0.211,0.033-0.296,0.09l-4.547,3.071l2.032-6.903
			c0,0-1.129-0.063-1.144-0.063c-0.202,0-0.378,0.108-0.476,0.269l-7.937,12.753l3.902-1.156l-0.642,2.868l2.254-1.261l0-0.001
			c2.311,6.398,8.704,10.998,16.229,10.998c1.973,0,3.868-0.317,5.632-0.899c0.002,0,0.003,0,0.004,0
			c0.034-0.009,0.061-0.013,0.093-0.013c0.153,0,0.292,0.115,0.317,0.248c0.067,0.359,0.016,0.722-0.068,1.031
			c-0.091,0.339-0.203,0.569-0.387,0.838c-0.097,0.142-0.262,0.229-0.441,0.252l-3.071,0.273c-1.339,0.122-2.389,1.247-2.389,2.618
			c0,0.215,0.027,0.424,0.075,0.625c0.4-0.841,1.233-1.436,2.212-1.497c-0.327,0.294-0.534,0.72-0.534,1.194
			c0,0.506,0.234,0.956,0.599,1.251c0.26-1.037,1.134-1.829,2.217-1.967C49.842,80.919,50.068,80.902,50.376,80.943z"/>
	</g>
</g>
</svg>
